<svg width="34" height="34" viewBox="0 0 34 34" fill="none" xmlns="http://www.w3.org/2000/svg">
<path d="M7.60242 15.9375H28.8524C29.1342 15.9375 29.4045 16.0494 29.6037 16.2487C29.803 16.448 29.9149 16.7182 29.9149 17C29.9149 17.2818 29.803 17.552 29.6037 17.7513C29.4045 17.9506 29.1342 18.0625 28.8524 18.0625H7.60242C7.32062 18.0625 7.05037 17.9506 6.85112 17.7513C6.65186 17.552 6.53992 17.2818 6.53992 17C6.53992 16.7182 6.65186 16.448 6.85112 16.2487C7.05037 16.0494 7.32062 15.9375 7.60242 15.9375Z" fill="#fff"/>
<path d="M7.87744 16.9999L16.6898 25.8101C16.8893 26.0096 17.0014 26.2802 17.0014 26.5624C17.0014 26.8445 16.8893 27.1151 16.6898 27.3146C16.4903 27.5141 16.2197 27.6262 15.9376 27.6262C15.6554 27.6262 15.3848 27.5141 15.1853 27.3146L5.62282 17.7521C5.52387 17.6534 5.44537 17.5362 5.3918 17.4071C5.33824 17.278 5.31067 17.1396 5.31067 16.9999C5.31067 16.8601 5.33824 16.7217 5.3918 16.5927C5.44537 16.4636 5.52387 16.3463 5.62282 16.2476L15.1853 6.68513C15.3848 6.48562 15.6554 6.37354 15.9376 6.37354C16.2197 6.37354 16.4903 6.48562 16.6898 6.68513C16.8893 6.88464 17.0014 7.15523 17.0014 7.43738C17.0014 7.71953 16.8893 7.99012 16.6898 8.18963L7.87744 16.9999Z" fill="#fff"/>
</svg>
