<?xml version="1.0" encoding="UTF-8"?>
<!DOCTYPE svg PUBLIC "-//W3C//DTD SVG 1.1//EN" "http://www.w3.org/Graphics/SVG/1.1/DTD/svg11.dtd">
<svg xmlns="http://www.w3.org/2000/svg" version="1.1" width="512px" height="512px" style="shape-rendering:geometricPrecision; text-rendering:geometricPrecision; image-rendering:optimizeQuality; fill-rule:evenodd; clip-rule:evenodd" xmlns:xlink="http://www.w3.org/1999/xlink">
<g><path style="opacity:0.966" fill="#212a53" d="M 140.5,258.5 C 143.143,261.34 143.976,264.673 143,268.5C 122.48,303.541 102.48,338.874 83,374.5C 81.9733,387.617 87.4733,396.784 99.5,402C 202.833,402.667 306.167,402.667 409.5,402C 424.247,397.01 430.081,386.844 427,371.5C 377.253,284.337 327.253,197.337 277,110.5C 268.171,97.7505 256.671,94.5839 242.5,101C 240.333,103.167 238.167,105.333 236,107.5C 220.667,134.167 205.333,160.833 190,187.5C 187.354,192.262 183.521,193.595 178.5,191.5C 176.467,190.102 175.467,188.102 175.5,185.5C 176.099,182.298 177.266,179.298 179,176.5C 193.667,151.167 208.333,125.833 223,100.5C 234.513,84.7731 249.68,79.6064 268.5,85C 278.526,89.0246 286.026,95.858 291,105.5C 341.52,192.54 391.52,279.873 441,367.5C 445.896,393.916 435.396,410.416 409.5,417C 306.833,417.667 204.167,417.667 101.5,417C 75.6038,410.416 65.1038,393.916 70,367.5C 89.4797,331.874 109.48,296.541 130,261.5C 132.89,258.146 136.39,257.146 140.5,258.5 Z"/></g>
<g><path style="opacity:1" fill="#ed3f4c" d="M 140.5,258.5 C 144.901,250.032 149.568,241.699 154.5,233.5C 157.187,233.664 159.854,233.497 162.5,233C 165.758,229.313 168.092,225.146 169.5,220.5C 168.975,217.971 167.975,215.638 166.5,213.5C 170.488,206.194 174.488,198.86 178.5,191.5C 183.521,193.595 187.354,192.262 190,187.5C 205.333,160.833 220.667,134.167 236,107.5C 238.167,105.333 240.333,103.167 242.5,101C 256.671,94.5839 268.171,97.7505 277,110.5C 327.253,197.337 377.253,284.337 427,371.5C 430.081,386.844 424.247,397.01 409.5,402C 306.167,402.667 202.833,402.667 99.5,402C 87.4733,396.784 81.9733,387.617 83,374.5C 102.48,338.874 122.48,303.541 143,268.5C 143.976,264.673 143.143,261.34 140.5,258.5 Z"/></g>
<g><path style="opacity:1" fill="#222c55" d="M 246.5,178.5 C 262.625,175.313 274.125,180.98 281,195.5C 281.667,227.167 281.667,258.833 281,290.5C 278.833,300.667 272.667,306.833 262.5,309C 251.837,311.611 242.671,309.111 235,301.5C 232.522,298.211 230.856,294.544 230,290.5C 229.333,258.833 229.333,227.167 230,195.5C 233.019,187.316 238.519,181.649 246.5,178.5 Z"/></g>
<g><path style="opacity:1" fill="#fef6ec" d="M 249.5,192.5 C 253.514,192.334 257.514,192.501 261.5,193C 264,194.167 265.833,196 267,198.5C 267.667,228.833 267.667,259.167 267,289.5C 265.833,292 264,293.833 261.5,295C 257.5,295.667 253.5,295.667 249.5,295C 247,293.833 245.167,292 244,289.5C 243.333,259.167 243.333,228.833 244,198.5C 245.36,195.977 247.193,193.977 249.5,192.5 Z"/></g>
<g><path style="opacity:0.961" fill="#212a54" d="M 166.5,213.5 C 167.975,215.638 168.975,217.971 169.5,220.5C 168.092,225.146 165.758,229.313 162.5,233C 159.854,233.497 157.187,233.664 154.5,233.5C 151.16,229.948 150.66,225.948 153,221.5C 154.467,218.734 156.3,216.234 158.5,214C 161.146,213.503 163.813,213.336 166.5,213.5 Z"/></g>
<g><path style="opacity:1" fill="#212b54" d="M 247.5,323.5 C 272.818,321.978 283.651,333.645 280,358.5C 273.06,372.706 261.893,377.872 246.5,374C 231.971,366.771 226.804,355.271 231,339.5C 234.413,331.919 239.913,326.586 247.5,323.5 Z"/></g>
<g><path style="opacity:1" fill="#faf3ea" d="M 250.5,337.5 C 262.823,335.991 268.323,341.324 267,353.5C 261.764,362.107 254.931,363.607 246.5,358C 241.497,349.787 242.83,342.954 250.5,337.5 Z"/></g>
</svg>
