<svg width="122" height="109" viewBox="0 0 122 109" fill="none" xmlns="http://www.w3.org/2000/svg">
    <path d="M52.155 101.834C76.8241 101.834 96.8223 81.8227 96.8223 57.1375C96.8223 32.4522 76.8241 12.4409 52.155 12.4409C27.486 12.4409 7.48779 32.4522 7.48779 57.1375C7.48779 81.8227 27.486 101.834 52.155 101.834Z" fill="#ECFFDE" stroke="#58CC02" stroke-width="2.56286"/>
    <path d="M52.1541 79.4864C64.4886 79.4864 74.4876 69.4808 74.4876 57.1382C74.4876 44.7957 64.4886 34.79 52.1541 34.79C39.8196 34.79 29.8206 44.7957 29.8206 57.1382C29.8206 69.4808 39.8196 79.4864 52.1541 79.4864Z" fill="#ECFFDE" stroke="#58CC02" stroke-width="2.56286"/>
    <path fill-rule="evenodd" clip-rule="evenodd" d="M100.18 16.0591L79.8094 31.7784L76.7877 16.4767C76.7219 15.548 76.8596 14.4621 77.6744 13.8333L93.5631 1.57221C94.7853 0.629047 96.2314 0.819348 97.1782 2.04796C97.4941 2.4575 97.6519 2.66228 97.6061 3.02424L100.18 16.0591Z" fill="#58A700"/>
    <path fill-rule="evenodd" clip-rule="evenodd" d="M103.334 20.1543L82.9635 35.8737L96.9852 42.687C97.8658 42.9869 98.9503 43.1296 99.7651 42.5008L115.654 30.2397C116.876 29.2966 117.06 27.8487 116.113 26.6201C115.798 26.2106 115.64 26.0058 115.278 25.9582L103.334 20.1543Z" fill="#58A700"/>
    <path d="M98.1053 17.0779L50.5401 53.7826C48.9115 55.0393 48.6094 57.3792 49.8653 59.0088C51.1212 60.6385 53.4596 60.9408 55.0882 59.6841L102.653 22.9794C104.282 21.7226 104.584 19.3828 103.328 17.7531C102.072 16.1235 99.7339 15.8212 98.1053 17.0779Z" fill="#478700"/>
</svg>
