<?xml version="1.0" standalone="no"?>
<!DOCTYPE svg PUBLIC "-//W3C//DTD SVG 20010904//EN"
 "http://www.w3.org/TR/2001/REC-SVG-20010904/DTD/svg10.dtd">
<svg version="1.0" xmlns="http://www.w3.org/2000/svg"
 width="512.000000pt" height="512.000000pt" viewBox="0 0 512.000000 512.000000"
 preserveAspectRatio="xMidYMid meet">

<g transform="translate(0.000000,512.000000) scale(0.100000,-0.100000)"
fill="#000000" stroke="none">
<path d="M753 5103 c-24 -8 -62 -34 -86 -57 -62 -59 -77 -111 -77 -258 l0
-118 -100 0 c-94 0 -103 -2 -125 -25 -32 -31 -32 -69 0 -100 22 -23 31 -25
125 -25 l100 0 0 -180 0 -180 -100 0 c-94 0 -103 -2 -125 -25 -14 -13 -25 -36
-25 -50 0 -14 11 -37 25 -50 22 -23 31 -25 125 -25 l100 0 0 -180 0 -180 -100
0 c-94 0 -103 -2 -125 -25 -32 -31 -32 -69 0 -100 22 -23 31 -25 125 -25 l100
0 0 -180 0 -180 -100 0 c-94 0 -103 -2 -125 -25 -32 -31 -32 -69 0 -100 22
-23 31 -25 125 -25 l100 0 0 -180 0 -180 -100 0 c-94 0 -103 -2 -125 -25 -32
-31 -32 -69 0 -100 22 -23 31 -25 125 -25 l100 0 0 -180 0 -180 -100 0 c-94 0
-103 -2 -125 -25 -32 -31 -32 -69 0 -100 22 -23 31 -25 125 -25 l100 0 0 -180
0 -180 -104 0 c-101 0 -105 -1 -125 -26 -28 -35 -26 -69 4 -99 22 -23 31 -25
125 -25 l100 0 0 -180 0 -180 -103 0 c-95 0 -105 -2 -125 -23 -27 -29 -28 -67
-3 -98 18 -22 28 -24 125 -27 l106 -4 0 -179 0 -179 -103 0 c-95 0 -105 -2
-125 -23 -27 -29 -28 -67 -3 -98 18 -22 28 -24 125 -27 l106 -4 0 -112 c0
-139 15 -190 76 -250 75 -76 77 -76 581 -76 l444 0 24 25 c32 31 32 69 0 100
-24 25 -25 25 -225 25 l-200 0 0 2024 c0 1913 -1 2025 -17 2045 -10 11 -32 24
-50 27 -26 5 -37 1 -57 -19 l-26 -26 0 -2026 0 -2025 -166 0 -166 0 -34 34
-34 34 0 111 0 111 90 0 c99 0 132 10 149 47 16 34 14 47 -10 77 -20 25 -24
26 -125 26 l-104 0 0 180 0 180 90 0 c99 0 132 10 149 47 16 34 14 47 -10 77
-20 25 -24 26 -125 26 l-104 0 0 179 0 179 105 4 c115 3 130 10 141 65 5 26 1
37 -19 57 -25 24 -32 26 -127 26 l-100 0 0 180 0 180 100 0 c94 0 103 2 125
25 32 31 32 69 0 100 -22 23 -31 25 -125 25 l-100 0 0 180 0 180 100 0 c94 0
103 2 125 25 32 31 32 69 0 100 -22 23 -31 25 -125 25 l-100 0 0 180 0 180
100 0 c94 0 103 2 125 25 32 31 32 69 0 100 -22 23 -31 25 -125 25 l-100 0 0
180 0 180 100 0 c94 0 103 2 125 25 32 31 32 69 0 100 -22 23 -31 25 -125 25
l-100 0 0 180 0 180 99 0 c112 0 136 11 147 67 5 26 1 37 -19 57 -25 24 -32
26 -127 26 l-100 0 0 180 0 180 99 0 c112 0 136 11 147 67 5 26 1 37 -19 57
-25 24 -32 26 -127 26 l-100 0 0 116 0 116 34 34 34 34 166 0 166 0 0 -238 c0
-236 0 -239 23 -260 31 -29 72 -28 102 3 l25 24 0 236 0 235 1424 0 c901 0
1434 -4 1450 -10 14 -5 35 -24 46 -42 20 -33 20 -52 20 -2358 0 -2306 0 -2325
-20 -2358 -11 -18 -32 -37 -46 -42 -16 -6 -426 -10 -1099 -10 -1033 0 -1074
-1 -1096 -19 -32 -26 -32 -86 0 -112 23 -19 58 -19 1125 -17 l1101 3 41 22
c22 12 57 40 77 62 69 77 67 44 67 1022 l0 878 181 3 c176 3 181 4 200 27 18
23 19 58 19 1313 l0 1289 -25 24 c-24 25 -27 25 -200 25 l-175 0 0 108 c0 69
-6 127 -16 161 -18 61 -69 123 -128 154 l-41 22 -1700 2 c-1492 1 -1705 0
-1742 -14z m3877 -928 l0 -345 -125 0 -125 0 0 345 0 345 125 0 125 0 0 -345z
m0 -840 l0 -345 -125 0 -125 0 0 345 0 345 125 0 125 0 0 -345z m0 -845 l0
-350 -125 0 -125 0 0 350 0 350 125 0 125 0 0 -350z"/>
<path d="M2045 3305 l-25 -24 0 -704 c0 -697 0 -705 21 -731 l20 -26 719 0
719 0 20 26 c21 26 21 34 21 731 l0 704 -25 24 -24 25 -711 0 -711 0 -24 -25z
m1345 -730 l0 -605 -610 0 -610 0 0 605 0 605 610 0 610 0 0 -605z"/>
</g>
</svg>
