<svg width="108" height="108" viewBox="0 0 108 108" fill="none" xmlns="http://www.w3.org/2000/svg">
    <path d="M45.5625 39.9375C45.5625 35.2776 49.3402 31.5 54 31.5C58.6598 31.5 62.4375 35.2776 62.4375 39.9375C62.4375 43.031 60.7725 45.7357 58.2903 47.2045C56.151 48.4699 54 50.3897 54 52.875V58.5" stroke="#46347C" stroke-width="9.072" stroke-linecap="round"/>
    <path d="M54 76.5C56.4853 76.5 58.5 74.4853 58.5 72C58.5 69.5147 56.4853 67.5 54 67.5C51.5147 67.5 49.5 69.5147 49.5 72C49.5 74.4853 51.5147 76.5 54 76.5Z" fill="#46347C"/>
    <path d="M31.5 15.0202C38.1189 11.1914 45.8037 9 54 9C78.8526 9 99 29.1472 99 54C99 78.8526 78.8526 99 54 99C29.1472 99 9 78.8526 9 54C9 45.8037 11.1914 38.1189 15.0202 31.5" stroke="#46347C" stroke-width="9.072" stroke-linecap="round"/>
</svg>
